<svg xmlns="http://www.w3.org/2000/svg" xmlns:xlink="http://www.w3.org/1999/xlink" width="500" zoomAndPan="magnify" viewBox="0 0 375 374.999991" height="500" preserveAspectRatio="xMidYMid meet" version="1.0"><defs><g/><clipPath id="0f981ed463"><path d="M 171.273438 104.238281 L 291.339844 104.238281 L 291.339844 178.488281 L 171.273438 178.488281 Z M 171.273438 104.238281 " clip-rule="nonzero"/></clipPath><clipPath id="98b570a08a"><path d="M 215.375 133.167969 L 248 133.167969 L 248 167.921875 L 215.375 167.921875 Z M 215.375 133.167969 " clip-rule="nonzero"/></clipPath><clipPath id="9f0dfe8d1c"><path d="M 28.175781 37.5 L 342.214844 37.5 L 342.214844 351.539062 L 28.175781 351.539062 Z M 28.175781 37.5 " clip-rule="nonzero"/></clipPath><clipPath id="b24a52b02d"><path d="M 185.195312 37.5 C 98.476562 37.5 28.175781 107.800781 28.175781 194.519531 C 28.175781 281.238281 98.476562 351.539062 185.195312 351.539062 C 271.914062 351.539062 342.214844 281.238281 342.214844 194.519531 C 342.214844 107.800781 271.914062 37.5 185.195312 37.5 Z M 185.195312 37.5 " clip-rule="nonzero"/></clipPath></defs><rect x="-37.5" width="450" fill="#ffffff" y="-37.499999" height="449.999989" fill-opacity="1"/><rect x="-37.5" width="450" fill="#f4f3ed" y="-37.499999" height="449.999989" fill-opacity="1"/><g fill="#000000" fill-opacity="1"><g transform="translate(74.103808, 223.184339)"><g><path d="M 29.796875 -10.609375 C 29.796875 -8.410156 29.304688 -6.46875 28.328125 -4.78125 C 27.347656 -3.09375 25.785156 -1.769531 23.640625 -0.8125 C 21.503906 0.132812 18.6875 0.609375 15.1875 0.609375 C 12.726562 0.609375 10.523438 0.472656 8.578125 0.203125 C 6.640625 -0.0546875 4.675781 -0.5625 2.6875 -1.3125 L 2.6875 -10.859375 C 4.863281 -9.859375 7.078125 -9.140625 9.328125 -8.703125 C 11.585938 -8.265625 13.367188 -8.046875 14.671875 -8.046875 C 16.015625 -8.046875 16.992188 -8.191406 17.609375 -8.484375 C 18.234375 -8.785156 18.546875 -9.226562 18.546875 -9.8125 C 18.546875 -10.320312 18.335938 -10.753906 17.921875 -11.109375 C 17.503906 -11.472656 16.757812 -11.882812 15.6875 -12.34375 C 14.625 -12.8125 13.125 -13.441406 11.1875 -14.234375 C 9.28125 -15.035156 7.691406 -15.898438 6.421875 -16.828125 C 5.148438 -17.765625 4.195312 -18.882812 3.5625 -20.1875 C 2.9375 -21.488281 2.625 -23.082031 2.625 -24.96875 C 2.625 -28.34375 3.921875 -30.882812 6.515625 -32.59375 C 9.117188 -34.300781 12.566406 -35.15625 16.859375 -35.15625 C 19.140625 -35.15625 21.285156 -34.90625 23.296875 -34.40625 C 25.304688 -33.914062 27.390625 -33.191406 29.546875 -32.234375 L 26.28125 -24.546875 C 24.570312 -25.316406 22.84375 -25.9375 21.09375 -26.40625 C 19.351562 -26.875 17.960938 -27.109375 16.921875 -27.109375 C 15.984375 -27.109375 15.257812 -26.984375 14.75 -26.734375 C 14.25 -26.492188 14 -26.140625 14 -25.671875 C 14 -25.242188 14.175781 -24.867188 14.53125 -24.546875 C 14.882812 -24.222656 15.554688 -23.847656 16.546875 -23.421875 C 17.546875 -22.992188 19.003906 -22.394531 20.921875 -21.625 C 22.929688 -20.8125 24.59375 -19.941406 25.90625 -19.015625 C 27.21875 -18.085938 28.191406 -16.960938 28.828125 -15.640625 C 29.472656 -14.316406 29.796875 -12.640625 29.796875 -10.609375 Z M 29.796875 -10.609375 "/></g></g></g><g fill="#000000" fill-opacity="1"><g transform="translate(100.274794, 223.184339)"><g><path d="M 16.046875 -47.453125 L 16.046875 -40.703125 C 16.046875 -38.148438 15.988281 -36.003906 15.875 -34.265625 C 15.757812 -32.523438 15.648438 -31.195312 15.546875 -30.28125 L 16.09375 -30.28125 C 16.851562 -31.476562 17.707031 -32.429688 18.65625 -33.140625 C 19.613281 -33.859375 20.671875 -34.375 21.828125 -34.6875 C 22.992188 -35 24.253906 -35.15625 25.609375 -35.15625 C 27.890625 -35.15625 29.945312 -34.71875 31.78125 -33.84375 C 33.625 -32.96875 35.09375 -31.597656 36.1875 -29.734375 C 37.289062 -27.878906 37.84375 -25.457031 37.84375 -22.46875 L 37.84375 0 L 25.859375 0 L 25.859375 -18.84375 C 25.859375 -21.144531 25.519531 -22.878906 24.84375 -24.046875 C 24.175781 -25.210938 23.144531 -25.796875 21.75 -25.796875 C 20.300781 -25.796875 19.160156 -25.382812 18.328125 -24.5625 C 17.492188 -23.738281 16.90625 -22.539062 16.5625 -20.96875 C 16.21875 -19.394531 16.046875 -17.46875 16.046875 -15.1875 L 16.046875 0 L 4.109375 0 L 4.109375 -47.453125 Z M 16.046875 -47.453125 "/></g></g></g><g fill="#000000" fill-opacity="1"><g transform="translate(135.989711, 223.184339)"><g><path d="M 37.71875 -34.546875 L 37.71875 0 L 28.71875 0 L 27.234375 -4.296875 L 26.53125 -4.296875 C 25.820312 -3.140625 24.921875 -2.195312 23.828125 -1.46875 C 22.742188 -0.75 21.539062 -0.222656 20.21875 0.109375 C 18.894531 0.441406 17.519531 0.609375 16.09375 0.609375 C 13.84375 0.609375 11.804688 0.171875 9.984375 -0.703125 C 8.160156 -1.578125 6.71875 -2.945312 5.65625 -4.8125 C 4.59375 -6.6875 4.0625 -9.097656 4.0625 -12.046875 L 4.0625 -34.546875 L 15.984375 -34.546875 L 15.984375 -15.671875 C 15.984375 -13.429688 16.300781 -11.726562 16.9375 -10.5625 C 17.582031 -9.394531 18.632812 -8.8125 20.09375 -8.8125 C 21.601562 -8.8125 22.769531 -9.21875 23.59375 -10.03125 C 24.414062 -10.84375 24.988281 -12.039062 25.3125 -13.625 C 25.632812 -15.21875 25.796875 -17.148438 25.796875 -19.421875 L 25.796875 -34.546875 Z M 37.71875 -34.546875 "/></g></g></g><g fill="#000000" fill-opacity="1"><g transform="translate(171.70463, 223.184339)"><g><path d="M 21.046875 -8.8125 C 22.117188 -8.8125 23.101562 -8.921875 24 -9.140625 C 24.894531 -9.367188 25.832031 -9.65625 26.8125 -10 L 26.8125 -1.3125 C 25.507812 -0.738281 24.128906 -0.273438 22.671875 0.078125 C 21.222656 0.429688 19.367188 0.609375 17.109375 0.609375 C 14.867188 0.609375 12.894531 0.257812 11.1875 -0.4375 C 9.476562 -1.144531 8.148438 -2.363281 7.203125 -4.09375 C 6.265625 -5.832031 5.796875 -8.257812 5.796875 -11.375 L 5.796875 -25.609375 L 1.609375 -25.609375 L 1.609375 -30.46875 L 6.921875 -34.21875 L 10 -41.46875 L 17.8125 -41.46875 L 17.8125 -34.546875 L 26.28125 -34.546875 L 26.28125 -25.609375 L 17.8125 -25.609375 L 17.8125 -12.171875 C 17.8125 -11.046875 18.09375 -10.203125 18.65625 -9.640625 C 19.226562 -9.085938 20.023438 -8.8125 21.046875 -8.8125 Z M 21.046875 -8.8125 "/></g></g></g><g fill="#000000" fill-opacity="1"><g transform="translate(194.308073, 223.184339)"><g><path d="M 21.046875 -8.8125 C 22.117188 -8.8125 23.101562 -8.921875 24 -9.140625 C 24.894531 -9.367188 25.832031 -9.65625 26.8125 -10 L 26.8125 -1.3125 C 25.507812 -0.738281 24.128906 -0.273438 22.671875 0.078125 C 21.222656 0.429688 19.367188 0.609375 17.109375 0.609375 C 14.867188 0.609375 12.894531 0.257812 11.1875 -0.4375 C 9.476562 -1.144531 8.148438 -2.363281 7.203125 -4.09375 C 6.265625 -5.832031 5.796875 -8.257812 5.796875 -11.375 L 5.796875 -25.609375 L 1.609375 -25.609375 L 1.609375 -30.46875 L 6.921875 -34.21875 L 10 -41.46875 L 17.8125 -41.46875 L 17.8125 -34.546875 L 26.28125 -34.546875 L 26.28125 -25.609375 L 17.8125 -25.609375 L 17.8125 -12.171875 C 17.8125 -11.046875 18.09375 -10.203125 18.65625 -9.640625 C 19.226562 -9.085938 20.023438 -8.8125 21.046875 -8.8125 Z M 21.046875 -8.8125 "/></g></g></g><g fill="#000000" fill-opacity="1"><g transform="translate(216.911516, 223.184339)"><g><path d="M 19.671875 -35.15625 C 23.023438 -35.15625 25.921875 -34.570312 28.359375 -33.40625 C 30.796875 -32.238281 32.675781 -30.484375 34 -28.140625 C 35.320312 -25.804688 35.984375 -22.878906 35.984375 -19.359375 L 35.984375 -14.0625 L 14.671875 -14.0625 C 14.773438 -12.25 15.453125 -10.765625 16.703125 -9.609375 C 17.953125 -8.453125 19.796875 -7.875 22.234375 -7.875 C 24.390625 -7.875 26.363281 -8.082031 28.15625 -8.5 C 29.957031 -8.925781 31.816406 -9.585938 33.734375 -10.484375 L 33.734375 -1.921875 C 32.066406 -1.046875 30.242188 -0.40625 28.265625 0 C 26.296875 0.40625 23.804688 0.609375 20.796875 0.609375 C 17.316406 0.609375 14.203125 -0.0078125 11.453125 -1.25 C 8.710938 -2.488281 6.554688 -4.410156 4.984375 -7.015625 C 3.410156 -9.617188 2.625 -12.960938 2.625 -17.046875 C 2.625 -21.191406 3.332031 -24.597656 4.75 -27.265625 C 6.175781 -29.941406 8.171875 -31.925781 10.734375 -33.21875 C 13.296875 -34.507812 16.273438 -35.15625 19.671875 -35.15625 Z M 20.09375 -27.046875 C 18.6875 -27.046875 17.507812 -26.601562 16.5625 -25.71875 C 15.625 -24.832031 15.070312 -23.445312 14.90625 -21.5625 L 25.15625 -21.5625 C 25.132812 -22.570312 24.929688 -23.492188 24.546875 -24.328125 C 24.160156 -25.160156 23.597656 -25.820312 22.859375 -26.3125 C 22.117188 -26.800781 21.195312 -27.046875 20.09375 -27.046875 Z M 20.09375 -27.046875 "/></g></g></g><g fill="#000000" fill-opacity="1"><g transform="translate(249.39431, 223.184339)"><g><path d="M 24.96875 -35.15625 C 25.625 -35.15625 26.304688 -35.109375 27.015625 -35.015625 C 27.722656 -34.929688 28.253906 -34.859375 28.609375 -34.796875 L 27.53125 -23.546875 C 27.144531 -23.640625 26.644531 -23.722656 26.03125 -23.796875 C 25.425781 -23.867188 24.578125 -23.90625 23.484375 -23.90625 C 22.734375 -23.90625 21.929688 -23.832031 21.078125 -23.6875 C 20.222656 -23.550781 19.410156 -23.253906 18.640625 -22.796875 C 17.878906 -22.335938 17.253906 -21.644531 16.765625 -20.71875 C 16.285156 -19.789062 16.046875 -18.546875 16.046875 -16.984375 L 16.046875 0 L 4.109375 0 L 4.109375 -34.546875 L 12.984375 -34.546875 L 14.84375 -29.03125 L 15.4375 -29.03125 C 16.0625 -30.164062 16.863281 -31.195312 17.84375 -32.125 C 18.832031 -33.050781 19.941406 -33.785156 21.171875 -34.328125 C 22.410156 -34.878906 23.675781 -35.15625 24.96875 -35.15625 Z M 24.96875 -35.15625 "/></g></g></g><g fill="#000000" fill-opacity="1"><g transform="translate(272.585067, 223.184339)"><g/></g></g><g fill="#000000" fill-opacity="1"><g transform="translate(92.679565, 179.971975)"><g><path d="M 16.921875 -4.359375 C 17.796875 -4.359375 18.679688 -4.429688 19.578125 -4.578125 C 20.472656 -4.734375 21.242188 -4.9375 21.890625 -5.1875 L 21.890625 -0.484375 C 21.203125 -0.179688 20.28125 0.0703125 19.125 0.28125 C 17.976562 0.5 16.804688 0.609375 15.609375 0.609375 C 13.773438 0.609375 12.117188 0.296875 10.640625 -0.328125 C 9.160156 -0.960938 7.976562 -2.039062 7.09375 -3.5625 C 6.207031 -5.09375 5.765625 -7.207031 5.765625 -9.90625 L 5.765625 -28.875 L 1.09375 -28.875 L 1.09375 -31.703125 L 5.96875 -33.96875 L 8.140625 -41.21875 L 11.921875 -41.21875 L 11.921875 -33.59375 L 21.640625 -33.59375 L 21.640625 -28.875 L 11.921875 -28.875 L 11.921875 -10 C 11.921875 -8.113281 12.375 -6.703125 13.28125 -5.765625 C 14.1875 -4.828125 15.398438 -4.359375 16.921875 -4.359375 Z M 16.921875 -4.359375 "/></g></g></g><g fill="#000000" fill-opacity="1"><g transform="translate(110.035287, 179.971975)"><g><path d="M 11.34375 -47.4375 L 11.34375 -34.390625 C 11.34375 -33.347656 11.3125 -32.328125 11.25 -31.328125 C 11.1875 -30.335938 11.113281 -29.507812 11.03125 -28.84375 L 11.40625 -28.84375 C 12.113281 -30.019531 12.988281 -31 14.03125 -31.78125 C 15.082031 -32.5625 16.273438 -33.148438 17.609375 -33.546875 C 18.941406 -33.941406 20.347656 -34.140625 21.828125 -34.140625 C 24.453125 -34.140625 26.664062 -33.710938 28.46875 -32.859375 C 30.28125 -32.003906 31.65625 -30.675781 32.59375 -28.875 C 33.53125 -27.082031 34 -24.753906 34 -21.890625 L 34 0 L 27.921875 0 L 27.921875 -21.0625 C 27.921875 -23.75 27.332031 -25.765625 26.15625 -27.109375 C 24.976562 -28.460938 23.171875 -29.140625 20.734375 -29.140625 C 18.410156 -29.140625 16.554688 -28.675781 15.171875 -27.75 C 13.796875 -26.832031 12.8125 -25.476562 12.21875 -23.6875 C 11.632812 -21.894531 11.34375 -19.703125 11.34375 -17.109375 L 11.34375 0 L 5.21875 0 L 5.21875 -47.4375 Z M 11.34375 -47.4375 "/></g></g></g><g fill="#000000" fill-opacity="1"><g transform="translate(142.909271, 179.971975)"><g><path d="M 18.390625 -34.203125 C 21.316406 -34.203125 23.820312 -33.578125 25.90625 -32.328125 C 28 -31.078125 29.601562 -29.3125 30.71875 -27.03125 C 31.84375 -24.757812 32.40625 -22.082031 32.40625 -19 L 32.40625 -15.515625 L 9.609375 -15.515625 C 9.660156 -11.921875 10.582031 -9.160156 12.375 -7.234375 C 14.164062 -5.316406 16.675781 -4.359375 19.90625 -4.359375 C 22.039062 -4.359375 23.941406 -4.5625 25.609375 -4.96875 C 27.273438 -5.375 29.003906 -5.972656 30.796875 -6.765625 L 30.796875 -1.609375 C 29.109375 -0.835938 27.414062 -0.273438 25.71875 0.078125 C 24.019531 0.429688 21.992188 0.609375 19.640625 0.609375 C 16.378906 0.609375 13.523438 -0.0390625 11.078125 -1.34375 C 8.628906 -2.644531 6.722656 -4.566406 5.359375 -7.109375 C 4.003906 -9.660156 3.328125 -12.804688 3.328125 -16.546875 C 3.328125 -20.253906 3.945312 -23.421875 5.1875 -26.046875 C 6.425781 -28.679688 8.171875 -30.695312 10.421875 -32.09375 C 12.679688 -33.5 15.335938 -34.203125 18.390625 -34.203125 Z M 18.359375 -29.453125 C 15.878906 -29.453125 13.882812 -28.644531 12.375 -27.03125 C 10.875 -25.414062 9.988281 -23.101562 9.71875 -20.09375 L 26.25 -20.09375 C 26.226562 -21.9375 25.929688 -23.5625 25.359375 -24.96875 C 24.796875 -26.375 23.9375 -27.472656 22.78125 -28.265625 C 21.632812 -29.054688 20.160156 -29.453125 18.359375 -29.453125 Z M 18.359375 -29.453125 "/></g></g></g><g clip-path="url(#0f981ed463)"><path fill="#000000" d="M 231.367188 123.988281 C 245.390625 123.988281 256.777344 135.457031 256.777344 149.59375 C 256.777344 163.726562 245.390625 175.199219 231.367188 175.199219 C 217.339844 175.199219 205.957031 163.726562 205.957031 149.59375 C 205.957031 135.457031 217.339844 123.988281 231.367188 123.988281 Z M 231.367188 120.695312 C 247.195312 120.695312 260.042969 133.644531 260.042969 149.59375 C 260.042969 165.542969 247.21875 178.488281 231.367188 178.488281 C 215.539062 178.488281 202.691406 165.566406 202.691406 149.59375 C 202.691406 133.644531 215.539062 120.695312 231.367188 120.695312 Z M 291.289062 134.417969 C 290.183594 126.648438 283.507812 120.621094 275.511719 120.621094 L 252.140625 120.621094 C 252.835938 121.640625 253.484375 122.703125 254.039062 123.816406 L 275.535156 123.816406 C 281.660156 123.816406 286.820312 128.222656 288.046875 134.054688 C 289.152344 134.128906 290.230469 134.25 291.289062 134.417969 Z M 187.222656 123.816406 L 208.71875 123.816406 C 209.269531 122.703125 209.894531 121.640625 210.617188 120.621094 L 187.222656 120.621094 C 178.816406 120.621094 171.875 127.253906 171.324219 135.578125 L 174.492188 135.578125 C 175.070312 129.019531 180.570312 123.816406 187.222656 123.816406 Z M 188.230469 114.910156 L 196.902344 114.910156 L 196.902344 117.429688 C 197.644531 117.429688 198.367188 117.5 199.085938 117.574219 L 199.085938 112.734375 L 186.070312 112.734375 L 186.070312 117.453125 L 188.253906 117.453125 L 188.253906 114.910156 Z M 254.710938 117.429688 L 253.484375 114.402344 C 252.863281 112.878906 251.324219 108.449219 249.859375 107.625 C 249.621094 107.503906 249.378906 107.457031 249.113281 107.457031 L 213.617188 107.457031 C 213.351562 107.457031 213.113281 107.503906 212.871094 107.625 C 211.40625 108.449219 209.871094 112.878906 209.246094 114.402344 L 208.023438 117.453125 L 204.585938 117.453125 L 206.292969 113.191406 C 208.140625 108.644531 209.582031 104.238281 213.59375 104.238281 L 249.089844 104.238281 C 253.101562 104.238281 254.542969 108.617188 256.390625 113.191406 L 258.121094 117.453125 L 254.710938 117.453125 Z M 263.09375 126.988281 L 263.09375 133.039062 L 273.875 133.039062 L 273.875 126.988281 Z M 264.992188 128.898438 L 272.003906 128.898438 L 272.003906 131.125 L 264.992188 131.125 Z M 264.992188 128.898438 " fill-opacity="1" fill-rule="evenodd"/></g><g clip-path="url(#98b570a08a)"><path fill="#000000" d="M 247.457031 156.863281 C 247.097656 156.707031 246.683594 156.867188 246.527344 157.226562 C 243.953125 163.140625 238.125 166.960938 231.675781 166.960938 C 225.230469 166.960938 219.398438 163.140625 216.824219 157.226562 C 216.667969 156.867188 216.253906 156.707031 215.894531 156.863281 C 215.539062 157.015625 215.375 157.433594 215.53125 157.789062 C 218.332031 164.214844 224.667969 168.371094 231.675781 168.371094 C 238.683594 168.371094 245.023438 164.214844 247.820312 157.789062 C 247.859375 157.699219 247.878906 157.601562 247.878906 157.507812 C 247.878906 157.234375 247.722656 156.976562 247.457031 156.863281 Z M 219.203125 150.769531 C 219.203125 157.65625 224.789062 163.242188 231.675781 163.242188 C 238.566406 163.242188 244.148438 157.65625 244.148438 150.769531 C 244.148438 143.878906 238.566406 138.296875 231.675781 138.296875 C 228.667969 138.296875 225.910156 139.359375 223.757812 141.132812 C 224.835938 140.542969 226.078125 140.207031 227.394531 140.207031 C 231.59375 140.207031 235.003906 143.613281 235.003906 147.816406 C 235.003906 152.015625 231.59375 155.421875 227.394531 155.421875 C 223.191406 155.421875 219.785156 152.015625 219.785156 147.816406 C 219.785156 147.460938 219.8125 147.113281 219.859375 146.769531 C 219.433594 148.023438 219.203125 149.371094 219.203125 150.769531 Z M 215.894531 144.675781 C 216.253906 144.832031 216.667969 144.667969 216.824219 144.3125 C 219.398438 138.398438 225.230469 134.578125 231.675781 134.578125 C 238.125 134.578125 243.953125 138.398438 246.527344 144.3125 C 246.683594 144.667969 247.097656 144.832031 247.457031 144.675781 C 247.722656 144.5625 247.878906 144.300781 247.878906 144.03125 C 247.878906 143.9375 247.859375 143.839844 247.820312 143.75 C 245.023438 137.320312 238.683594 133.167969 231.675781 133.167969 C 224.667969 133.167969 218.332031 137.320312 215.53125 143.75 C 215.375 144.105469 215.539062 144.519531 215.894531 144.675781 " fill-opacity="1" fill-rule="nonzero"/></g><g clip-path="url(#9f0dfe8d1c)"><g clip-path="url(#b24a52b02d)"><path stroke-linecap="butt" transform="matrix(0.75, 0, 0, 0.75, 28.17461, 37.499998)" fill="none" stroke-linejoin="miter" d="M 209.360951 0.00000328333 C 93.735943 0.00000328333 0.00156208 93.734384 0.00156208 209.359392 C 0.00156208 324.9844 93.735943 418.718781 209.360951 418.718781 C 324.985958 418.718781 418.72034 324.9844 418.72034 209.359392 C 418.72034 93.734384 324.985958 0.00000328333 209.360951 0.00000328333 Z M 209.360951 0.00000328333 " stroke="#000000" stroke-width="2" stroke-opacity="1" stroke-miterlimit="4"/></g></g><g fill="#000000" fill-opacity="1"><g transform="translate(155.790697, 262.979713)"><g><path d="M 18.71875 0.609375 C 15.625 0.609375 12.921875 -0.0078125 10.609375 -1.25 C 8.296875 -2.488281 6.503906 -4.382812 5.234375 -6.9375 C 3.960938 -9.488281 3.328125 -12.710938 3.328125 -16.609375 C 3.328125 -20.679688 4.003906 -24.007812 5.359375 -26.59375 C 6.722656 -29.1875 8.609375 -31.101562 11.015625 -32.34375 C 13.429688 -33.582031 16.191406 -34.203125 19.296875 -34.203125 C 21.128906 -34.203125 22.84375 -34.019531 24.4375 -33.65625 C 26.03125 -33.289062 27.363281 -32.832031 28.4375 -32.28125 L 26.609375 -27.3125 C 25.472656 -27.757812 24.25 -28.15625 22.9375 -28.5 C 21.625 -28.851562 20.378906 -29.03125 19.203125 -29.03125 C 17.046875 -29.03125 15.257812 -28.554688 13.84375 -27.609375 C 12.4375 -26.660156 11.378906 -25.269531 10.671875 -23.4375 C 9.960938 -21.613281 9.609375 -19.359375 9.609375 -16.671875 C 9.609375 -14.078125 9.957031 -11.878906 10.65625 -10.078125 C 11.351562 -8.273438 12.390625 -6.90625 13.765625 -5.96875 C 15.140625 -5.039062 16.851562 -4.578125 18.90625 -4.578125 C 20.707031 -4.578125 22.328125 -4.78125 23.765625 -5.1875 C 25.210938 -5.59375 26.550781 -6.109375 27.78125 -6.734375 L 27.78125 -1.34375 C 26.59375 -0.6875 25.285156 -0.195312 23.859375 0.125 C 22.441406 0.445312 20.726562 0.609375 18.71875 0.609375 Z M 18.71875 0.609375 "/></g></g></g><g fill="#000000" fill-opacity="1"><g transform="translate(180.128119, 262.979713)"><g><path d="M 11.34375 -33.59375 L 11.34375 0 L 5.21875 0 L 5.21875 -33.59375 Z M 8.328125 -46.3125 C 9.296875 -46.3125 10.128906 -46.023438 10.828125 -45.453125 C 11.535156 -44.890625 11.890625 -43.96875 11.890625 -42.6875 C 11.890625 -41.40625 11.535156 -40.472656 10.828125 -39.890625 C 10.128906 -39.316406 9.296875 -39.03125 8.328125 -39.03125 C 7.328125 -39.03125 6.484375 -39.316406 5.796875 -39.890625 C 5.117188 -40.472656 4.78125 -41.40625 4.78125 -42.6875 C 4.78125 -43.96875 5.117188 -44.890625 5.796875 -45.453125 C 6.484375 -46.023438 7.328125 -46.3125 8.328125 -46.3125 Z M 8.328125 -46.3125 "/></g></g></g><g fill="#000000" fill-opacity="1"><g transform="translate(190.593616, 262.979713)"><g><path d="M 21.375 -34.203125 C 21.976562 -34.203125 22.632812 -34.164062 23.34375 -34.09375 C 24.0625 -34.03125 24.675781 -33.945312 25.1875 -33.84375 L 24.546875 -28.140625 C 24.054688 -28.265625 23.488281 -28.363281 22.84375 -28.4375 C 22.207031 -28.519531 21.613281 -28.5625 21.0625 -28.5625 C 19.757812 -28.5625 18.519531 -28.316406 17.34375 -27.828125 C 16.164062 -27.347656 15.128906 -26.644531 14.234375 -25.71875 C 13.335938 -24.789062 12.632812 -23.660156 12.125 -22.328125 C 11.625 -20.992188 11.375 -19.476562 11.375 -17.78125 L 11.375 0 L 5.21875 0 L 5.21875 -33.59375 L 10.15625 -33.59375 L 10.890625 -27.53125 L 11.15625 -27.53125 C 11.84375 -28.75 12.679688 -29.863281 13.671875 -30.875 C 14.660156 -31.894531 15.800781 -32.703125 17.09375 -33.296875 C 18.382812 -33.898438 19.8125 -34.203125 21.375 -34.203125 Z M 21.375 -34.203125 "/></g></g></g><g fill="#000000" fill-opacity="1"><g transform="translate(210.693231, 262.979713)"><g><path d="M 18.71875 0.609375 C 15.625 0.609375 12.921875 -0.0078125 10.609375 -1.25 C 8.296875 -2.488281 6.503906 -4.382812 5.234375 -6.9375 C 3.960938 -9.488281 3.328125 -12.710938 3.328125 -16.609375 C 3.328125 -20.679688 4.003906 -24.007812 5.359375 -26.59375 C 6.722656 -29.1875 8.609375 -31.101562 11.015625 -32.34375 C 13.429688 -33.582031 16.191406 -34.203125 19.296875 -34.203125 C 21.128906 -34.203125 22.84375 -34.019531 24.4375 -33.65625 C 26.03125 -33.289062 27.363281 -32.832031 28.4375 -32.28125 L 26.609375 -27.3125 C 25.472656 -27.757812 24.25 -28.15625 22.9375 -28.5 C 21.625 -28.851562 20.378906 -29.03125 19.203125 -29.03125 C 17.046875 -29.03125 15.257812 -28.554688 13.84375 -27.609375 C 12.4375 -26.660156 11.378906 -25.269531 10.671875 -23.4375 C 9.960938 -21.613281 9.609375 -19.359375 9.609375 -16.671875 C 9.609375 -14.078125 9.957031 -11.878906 10.65625 -10.078125 C 11.351562 -8.273438 12.390625 -6.90625 13.765625 -5.96875 C 15.140625 -5.039062 16.851562 -4.578125 18.90625 -4.578125 C 20.707031 -4.578125 22.328125 -4.78125 23.765625 -5.1875 C 25.210938 -5.59375 26.550781 -6.109375 27.78125 -6.734375 L 27.78125 -1.34375 C 26.59375 -0.6875 25.285156 -0.195312 23.859375 0.125 C 22.441406 0.445312 20.726562 0.609375 18.71875 0.609375 Z M 18.71875 0.609375 "/></g></g></g><g fill="#000000" fill-opacity="1"><g transform="translate(235.030655, 262.979713)"><g><path d="M 11.375 0 L 5.21875 0 L 5.21875 -47.4375 L 11.375 -47.4375 Z M 11.375 0 "/></g></g></g><g fill="#000000" fill-opacity="1"><g transform="translate(245.496154, 262.979713)"><g><path d="M 18.390625 -34.203125 C 21.316406 -34.203125 23.820312 -33.578125 25.90625 -32.328125 C 28 -31.078125 29.601562 -29.3125 30.71875 -27.03125 C 31.84375 -24.757812 32.40625 -22.082031 32.40625 -19 L 32.40625 -15.515625 L 9.609375 -15.515625 C 9.660156 -11.921875 10.582031 -9.160156 12.375 -7.234375 C 14.164062 -5.316406 16.675781 -4.359375 19.90625 -4.359375 C 22.039062 -4.359375 23.941406 -4.5625 25.609375 -4.96875 C 27.273438 -5.375 29.003906 -5.972656 30.796875 -6.765625 L 30.796875 -1.609375 C 29.109375 -0.835938 27.414062 -0.273438 25.71875 0.078125 C 24.019531 0.429688 21.992188 0.609375 19.640625 0.609375 C 16.378906 0.609375 13.523438 -0.0390625 11.078125 -1.34375 C 8.628906 -2.644531 6.722656 -4.566406 5.359375 -7.109375 C 4.003906 -9.660156 3.328125 -12.804688 3.328125 -16.546875 C 3.328125 -20.253906 3.945312 -23.421875 5.1875 -26.046875 C 6.425781 -28.679688 8.171875 -30.695312 10.421875 -32.09375 C 12.679688 -33.5 15.335938 -34.203125 18.390625 -34.203125 Z M 18.359375 -29.453125 C 15.878906 -29.453125 13.882812 -28.644531 12.375 -27.03125 C 10.875 -25.414062 9.988281 -23.101562 9.71875 -20.09375 L 26.25 -20.09375 C 26.226562 -21.9375 25.929688 -23.5625 25.359375 -24.96875 C 24.796875 -26.375 23.9375 -27.472656 22.78125 -28.265625 C 21.632812 -29.054688 20.160156 -29.453125 18.359375 -29.453125 Z M 18.359375 -29.453125 "/></g></g></g></svg>